<svg width="26" height="20" viewBox="0 0 26 20" fill="none" xmlns="http://www.w3.org/2000/svg">
<path fill-rule="evenodd" clip-rule="evenodd" d="M13.7614 0.388732C13.6759 0.268714 13.5619 0.170699 13.4294 0.103021C13.2968 0.0353417 13.1495 0 13 0C12.8505 0 12.7032 0.0353417 12.5706 0.103021C12.4381 0.170699 12.3241 0.268714 12.2386 0.388732L6.37371 8.59176L1.586 3.90302C1.45613 3.77556 1.29053 3.68872 1.11018 3.65351C0.92984 3.6183 0.742877 3.6363 0.572998 3.70524C0.403119 3.77418 0.257974 3.89094 0.155964 4.04073C0.0539538 4.19051 -0.000327534 4.36658 1.48692e-06 4.5466V16.3639C1.48692e-06 17.3283 0.391327 18.2531 1.08789 18.935C1.78445 19.6169 2.7292 20 3.71429 20H22.2857C23.2708 20 24.2155 19.6169 24.9121 18.935C25.6087 18.2531 26 17.3283 26 16.3639V4.5466C26.0003 4.36658 25.946 4.19051 25.844 4.04073C25.742 3.89094 25.5969 3.77418 25.427 3.70524C25.2571 3.6363 25.0702 3.6183 24.8898 3.65351C24.7095 3.68872 24.5439 3.77556 24.414 3.90302L19.6263 8.59176L13.7614 0.388732Z" fill="white"/>
</svg>
